# xmcd CD database file
#
# Track frame offsets:
#	150
#	27934
#	49800
#	70616
#	94258
#	120239
#	142343
#
# Disc length: 2174 seconds
#
# Revision: 0
# Processed by: cddbd v1.5.1PL2 Copyright (c) Steve Scherf et al.
# Submitted via: CDex 1.51
#
DISCID=5d087c07
DTITLE=Phil Townsend - Beautiful Black Lady (rainbow of color)
DYEAR=2005
DGENRE=Jazz
TTITLE0=Beautiful Black Lady
TTITLE1=How About Me
TTITLE2=Echos
TTITLE3=Suum Bonie
TTITLE4=Do You Know?
TTITLE5=Just Above a Wisper
TTITLE6=Echo (Instrumental)
EXTD=YEAR: 2005
EXTT0=
EXTT1=
EXTT2=
EXTT3=
EXTT4=
EXTT5=
EXTT6=
PLAYORDER=
